<svg width="150" height="96" viewBox="0 0 150 96" fill="none" xmlns="http://www.w3.org/2000/svg">
<rect width="150" height="96" fill="black"/>
<path d="M31.7894 56V42.272L34.8374 39.2H45.5174V42.272H34.8374V52.928H46.2614L43.2134 56H31.7894ZM52.1571 56H49.1331V39.2H52.1571V56ZM52.1571 49.88L56.8131 39.2H60.2691L55.6371 49.88H52.1571ZM55.6371 49.88H59.5251L64.3971 56H60.4611L55.6371 49.88ZM66.3128 56V42.248L69.3608 39.2H81.6008V52.952L78.5528 56H66.3128ZM69.3608 52.952H78.5528V42.248H69.3608V52.952ZM84.9691 56V39.2H88.0171V46.808H97.1851V42.248H88.0171L91.0651 39.2H100.233V46.808L97.1851 49.856H88.0171V56H84.9691ZM101.914 56V42.248L104.962 39.2H117.202V52.952L114.154 56H101.914ZM104.962 52.952H114.154V42.248H104.962V52.952Z" fill="white"/>
</svg>
